<svg xmlns="http://www.w3.org/2000/svg" width="365.623" height="441.451" viewBox="0 0 365.623 441.451"><g transform="translate(-63.8 461.826)"><path d="M825.643,650.95c-53.2,3.446-78.192,10.555-78.192,10.555L732.8,657.628l-18.956,5.385-17.232-1.508s-9.909.646-10.77,0-4.093-5.385-4.093-5.385l-41.573,1.508s-14.432-2.8-15.078-2.8-7.324,2.8-7.324,2.8l-14.863-19.6-15.509-45.881-1.508-16.8,5.385-9.693,15.122,13.008,7.746-7.059,11.961-2.647L622.5,554.421l-16.09-7.645L589,540.588l13.911-52.421-65.6-2.184L514.405,441.6,499,403.236V399.6l31.083,2.24L569.57,409.4l35.563,11.481,24.082,9.241,2.52,2.8,3.92,55.249,1.96,7.756-22.122,33.043,3.92,4.244,15.461,6.486,7.856-32.67-6.536-26.31L630.661,434.5l6.245-42.316L563.236,361.6l-39.257-32.5,23.452-4.843,11.471,1.02,32.629,7.52,35.306,11.854,39.384,18.991,3.441-3.059,12.236-3.314,23.452-4.843,19.119-1.275,22.305,1.275,8.667,1.02-6.5-41.934-.892-54.3,30.208,15.932,9.814,30.08,5.608,27.021,1.912,19.883,1.784,32.5,4.971,12.108L816.112,443.3l4.461,11.981v12.746l-8.03,19.246L795.464,508.3l2.422,15.167,3.7,14.658,8.795,20.393,7.9,11.344,6.5,2.932L837.4,583.757l8.285-11.854,7.52-6.118,6.5,16.06-3.059,25.492-12.363,33.394-11.216,13.256Z" transform="translate(-431.888 -686.1)" fill="#ffd73e"/><path d="M315.7-459.3c-.9,2-1.2,12.2-1.2,37.3,0,34,1.3,59.1,4,77.5.8,4.9,1.3,9.1,1.1,9.2-.1.1-4.6-.2-10.1-.8-19.1-2-52.5,2.1-70,8.5l-7,2.5L216-333.4a307.267,307.267,0,0,0-91.5-29.2c-11.7-1.9-34.9-2.8-40-1.7-5.9,1.3-5.7,3.5,1.2,10.5,17.5,18,57.6,40,103.8,57.2,12.1,4.5,13.1,5,12.7,6.8a172.917,172.917,0,0,0-3.8,23.7c-.5,5.7-1.1,8.1-2,8.1-.7,0-5.3-1.7-10.1-3.9-31-13.6-76.2-24.4-108.2-25.8l-14.3-.6.7,3.4c3.1,14.2,25.9,65.4,36.8,82.7L104-198h17.3c17.3.1,46.5,1.5,47.4,2.3.2.3-2.8,11.4-6.6,24.8-3.9,13.3-7.1,25-7.1,26,0,1.1,1.5,2.3,4.3,3.3,18.1,6.6,26.4,9.8,28.3,11.1,2.5,1.6,5,8.4,4.1,10.9a3.324,3.324,0,0,1-2.9,1.6c-3.2,0-12.7,4.6-13.4,6.5-1,2.5-2.7,1.6-6.9-3.4-8-9.4-10.2-9.8-13.6-2.2-1.8,4-2,5.9-1.6,14.1,1.5,24.9,17,64.3,29.1,73.5,3.5,2.7,6.5,3.2,8.3,1.4.8-.8,3-.6,8,.6,5.8,1.5,9.6,1.7,25.6,1.1,10.3-.4,20-.9,21.6-1.2,2.7-.6,3-.3,3.3,2.2.3,2.8.5,2.9,5.4,2.9,2.8,0,5.8.6,6.7,1.3,1.3,1.1,1.9,1.1,3.6,0,1.7-1,2.5-1,4.1,0,1.7,1.1,2.6,1,5.1-.5,2.4-1.4,3.3-1.5,4.7-.5,3.4,2.4,4.4,2.4,7.1-.2,2.3-2.2,3.6-2.6,7.7-2.4a30.586,30.586,0,0,0,7-.6c1.5-.5,2.9,0,5.1,1.8,3.6,3,5.8,3.3,7.2.9.9-1.7,1.1-1.7,4.6,0,2.9,1.4,4,1.5,5.8.5a9.812,9.812,0,0,1,4.8-.9,5.58,5.58,0,0,0,3.9-1.3,4.5,4.5,0,0,1,3.1-1.6,5.517,5.517,0,0,0,3.6-2c1.6-1.8,3-2,16.3-2,8-.1,19.4-.7,25.5-1.4,10.4-1.3,11.1-1.3,13.6.5a10.586,10.586,0,0,0,4.4,1.9c12.9,0,30.4-41.5,30.9-73,.1-10.1,0-10.7-2.9-15.2-1.6-2.6-3.6-5-4.3-5.3-2.8-1-10.1,5.4-13.3,11.6l-3,6-6.2-5.2a73.7,73.7,0,0,0-10.3-7.2c-3.8-1.8-4.7-3-10.2-14.6-6.9-14.3-10.8-26.3-12-37-1-8.2-1.2-7.7,8.5-19a88.006,88.006,0,0,0,10-15.8c4.7-9.4,4.8-9.8,4.8-18.7-.1-8.3-.5-10.5-5.2-24.6-2.9-8.5-6.9-22.2-8.9-30.4s-4.9-18.3-6.4-22.5c-2.6-6.9-2.9-9.5-3.9-28.6-1.6-30.1-5.9-52.8-14.7-77.1-8.4-23.3-18.2-41.8-27.5-51.9C319.1-462.7,317.4-463.1,315.7-459.3Zm14,41.9c6.7,2.3,15,7.8,17.2,11.5,2.7,4.5,10.8,35.5,12.6,48.9.9,6.3,1.9,18.2,2.2,26.5l.5,15-3.4-3.3c-3.2-3-5.8-4.1-5.8-2.5,0,.4,1.8,3.3,4,6.4,6.5,9.3,10.9,19.8,14.1,33.6,2.6,10.7,7.9,29,10.4,35.5.5,1.3-.1,1.8-3.2,2.4-10.4,1.9-15.6,8.3-15.6,19.4,0,10.6,4.8,17.7,13.4,20,2.2.6,3.9,1.3,3.9,1.6,0,1.6-7.4,10.9-14.5,18.3a146.926,146.926,0,0,1-30.7,24.2c-6.6,3.9-8.4,5.9-5.2,5.9,2.9,0,16.4-7.4,24.1-13.2,4.2-3.2,7.8-5.6,8.1-5.4a81.975,81.975,0,0,1,1.8,8.6c1.6,9.3,6.8,23.8,12.5,35.2a87.848,87.848,0,0,1,3.9,8.2c0,.2-1.6.7-3.5,1-3.8.8-9.5,5-9.5,7.2,0,1.8.2,1.8,4.3-.6,8.7-5.2,16.5-3.3,26.9,6.3l5.8,5.4-4.1,11.9c-4.5,12.7-6.4,25.1-3.8,24.2.8-.3,2.9-5.8,4.9-12.9,3.5-12.2,8.7-26,11.6-30.9,1.4-2.3,1.4-1.8.9,6.2-.5,6.2-.3,8.8.4,8.8,1.6,0,2.9-4,4.5-13.6.7-4.7,1.7-8.8,2.1-9.2s.4,4.8,0,11.6c-.8,13.3.3,16,2.9,7.4l1.5-4.7v4.1c.2,9-5.2,30.4-11,44.2-2.9,6.8-9.8,16.7-12.9,18.6-2.5,1.4-2.8,1.4-4.2-.2a18.043,18.043,0,0,1-2.7-3.9c-1.4-2.8-2.7-2.9-3.4-.4-.5,2.2-2.6,2.6-19.7,4.2-14.4,1.3-33.4.9-35-.7-.8-.8,1.6-6.4,8.8-20.7,14.7-29,19.9-47.1,20.9-72.8.4-10.8.2-14.8-.6-15.4-.7-.4-1.4-.5-1.6-.3A122.822,122.822,0,0,0,362-133c-3,34.4-9.5,53.8-29.5,89.6-2.7,4.8-2.8,5.4-1.5,8l1.8,3.6c.7,1.4-2.5.8-3.8-.7-2.2-2.6-4.1-1.9-3.4,1.2l.7,2.8-2.6-2.4c-2.8-2.5-4.7-2.1-4.7,1,0,2,0,2-3.5-.1-3.8-2.4-6.5-2.1-6.5.7,0,1.4-.5,1.2-2.8-1-1.8-1.7-3.4-2.5-4.8-2.1-3.9,1-4.7-1.8-5.5-18.7-.5-8.8-1.3-20.4-1.9-25.9-1.2-10.7-1.1-11.1,2.7-30.2,1.5-7.1,2.3-13.1,1.9-13.5-1.3-1.3-3.4,2.7-5.3,9.8-.9,3.8-2,6.9-2.4,6.9s-1.6-4.2-2.8-9.2c-2.4-10.1-5.4-17.8-7.1-17.8-1.3,0-1.3-.5.9,9.2,4.6,19.9,8.6,49.9,9.7,73.3.4,9.1,1.1,14.8,2,16.2,1.3,2.1,1.2,2.1-1.9,1.7-2.5-.4-3.9.1-6.1,2.1L282.7-26l-2.4-2.2c-2.3-2.2-2.4-2.2-5.4-.4-2.7,1.6-3.4,1.6-5.6.5-1.9-1-2.8-1.1-4.4-.1s-2.3,1-3.5-.2c-1.1-1.2-2.1-1.3-4-.6-3.5,1.4-3.5,1.4-1.9-2.2,1.2-3,1.1-3.7-1.2-8.3-1.4-2.7-4.1-7.4-6-10.4-12.7-19.8-23.4-42.6-29.3-62.5-4.1-13.7-6.7-16.7-5.7-6.7,1.6,14.8,13.8,42.8,31.1,71.5,4.3,7.1,7.4,13.2,6.9,13.7-1.2,1.2-38.8,3.1-45.8,2.3-10.2-1.1-10.1-1-10.9-10.9-.6-8.4-1.8-12.5-3.5-12.5-.4,0-1.1,4.8-1.4,10.7-.3,5.8-1.1,11.1-1.6,11.6C185.4-30,176-43.5,169.1-60c-3.5-8.4-9.8-30.2-11.5-40l-.6-3.5,2.9,3.5c1.6,1.9,3.2,3.2,3.6,2.9.3-.4-.1-3.4-.9-6.7-2.2-8.3-1.9-10,.4-2.6,2.1,6.4,6,11.6,6,7.8a47.04,47.04,0,0,0-1.5-7.4c-.8-3-1.2-5.6-1-5.8.4-.4,7.9,12.3,12.2,20.8,1.6,3,3.4,5.6,4.1,5.8,2.3.7,1.2-4.4-2.8-12.6-4.4-9.3-4.3-10.1,1.7-14.2,5.3-3.7,13.9-3.3,22.6,1.1,3.7,1.8,7,3,7.4,2.6,1.3-1.3-5.1-6.8-9.9-8.5-2.7-.9-4.8-2.2-4.8-2.9a108.349,108.349,0,0,1,3.9-12.6c4-11.8,8.5-29.6,9.6-38.5.4-2.8.8-5.2,1-5.2.1,0,3,2.6,6.3,5.8,8.8,8.5,24.6,16.2,27.3,13.5.8-.8-.9-2.1-6.2-4.6-17.6-8.1-27.4-19.6-31.9-37-3.8-15.3-5.5-64.5-2.6-80.4,2.3-12.6,2.1-12.3,7.1-12.3,2.4,0,4.7-.4,5-1,.7-1.2-.9-1.9-14.5-6-25.3-7.7-69.1-27.6-73.4-33.3-3.6-4.9-5.6-11.9-5.6-20.2,0-6.5.2-7.5,1.8-7.5.9,0,8.3,1.4,16.3,3,33.8,6.8,69.6,21,92.2,36.4,3.4,2.3,6.8,4.5,7.5,5,2.2,1.3,1.3-2.1-1.3-5.2-1.4-1.7-2.2-3.3-1.8-3.5,3.2-1.9,20.1-6.2,30.8-7.8a168.439,168.439,0,0,1,66.3,2.8c2.4.6,3-.8,1-2.5a27.28,27.28,0,0,0-5.2-2.3c-2.1-.8-4.5-2.3-5.2-3.4-2.6-4-7.3-52.4-7.4-75.8V-419h3.5A31.008,31.008,0,0,1,329.7-417.4ZM89.8-283.4A346.629,346.629,0,0,1,189-257.1l8.5,3.6.7,13c1.3,23,2.7,37.9,4.3,43.5l1.4,5.4-9.3,13.1c-10.9,15.3-13.6,19.6-13.6,21.9,0,1.2,3,3.2,9.5,6.2,5.2,2.5,9.5,5,9.5,5.6,0,2.3-4.4,14.8-5.2,14.8-.4,0-.8-.7-.8-1.5,0-2.3-4.6-4.6-19.2-10-7.3-2.6-13.7-5.1-14.1-5.5-.9-.8,3.6-18.1,9.7-38,4.5-14.5,4.5-15.6.4-16.4-1.8-.3-17.1-.8-33.9-1.2l-30.7-.7-3.5-6.1c-4.6-7.9-12.3-23.4-18.1-36.5C80.5-255,69-283.5,69-284.6,69-285.4,76.3-285,89.8-283.4ZM207.4-182.2c1.7,3.7,1.7,4-1.9,18.2-2,7.9-3.8,14.7-4.1,15.2-.6.9-15.4-6.3-15.4-7.5,0-1.1,18.4-29.7,19.1-29.7C205.4-186,206.5-184.3,207.4-182.2Zm-46.7,67.4c-.3.8-.6.5-.6-.6-.1-1.1.2-1.7.5-1.3A2.026,2.026,0,0,1,160.7-114.8Z"/><path d="M342.3-285.1c-6,2.8-9.3,8.1-9.3,15.2,0,9.8,6.9,16.9,16.5,16.9,6.6,0,11.1-2.9,14.3-9a16.949,16.949,0,0,0-8-22.9C350.4-287.5,347.7-287.5,342.3-285.1Zm7.2,5.6c1.4,1.3,2.5,3.1,2.5,4,0,2-3.6,5.5-5.7,5.5-4.9,0-7.2-7.6-3.1-10.4C346.2-282.5,346.7-282.4,349.5-279.5Z"/><path d="M242.5-279.6c-14.2,6.3-11.8,28.3,3.5,31.7,6,1.4,11.7-.4,16.2-5.2A16.456,16.456,0,0,0,250-281,26.364,26.364,0,0,0,242.5-279.6Zm11.9,4.5a5.891,5.891,0,0,1-1.5,9c-2.4,1.3-2.9,1.3-5.3-.2a5.429,5.429,0,0,1-.4-9.1C250.2-277.5,252.3-277.4,254.4-275.1Z"/><path d="M306.9-258.4c-1.1,1.4-1,1.9,1,3.5a7.612,7.612,0,0,0,3.7,1.9c1.7,0,4.8-4.6,3.9-6C314.5-260.6,308.4-260.2,306.9-258.4Z"/><path d="M299.1-241.5c-13,6.4-17.6,7.4-24,5.1-5.7-1.9-7-1.1-3.5,2.5,2.1,2.2,3,4.6,4.1,11.1,4.7,27.4,18.4,48.8,31.1,48.8,3.2,0,9-3.5,12.7-7.8,6.3-7.1,15.1-28.4,18-43.3,1.3-7.2,2-8.6,4.8-11,4-3.4,3.2-4.3-2.4-2.8-4.2,1.1-4.9,1-14.3-3a121.448,121.448,0,0,0-12.4-4.7C311.2-247,307.3-245.6,299.1-241.5Zm18.5,24c5.7,2.9,11.4,7.8,11.4,9.9,0,.8-2.2,5.9-5,11.4-6,12-11,17.2-16.8,17.2-7.5,0-13.1-5.9-19.8-21l-3.6-8.2,3.8-3.9c5.4-5.6,10.6-7.8,18.5-7.9C311.1-220,313.7-219.4,317.6-217.5Z"/><path d="M217.9-231.7a19.6,19.6,0,0,0-10.3,17.6,19.791,19.791,0,0,0,33.7,14.3c4.4-4.1,6-8.1,6-14.3C247.3-229.5,231.6-238.9,217.9-231.7Z"/><circle cx="16" cy="16" r="16" transform="translate(211.8 -229.826)" fill="#ee4e36"/><path d="M683.625,492.859c3.76,8.669-2.105,24.995-6.374,26.367s-8.943-2.318-12.45-7.651c-2.025-6.254-3.4-10.179-.657-15.273.767-1.463,1.4-4.085,4.434-6.3s3.214-2.919,7.719-2.566,5.843,2.27,6.2,2.754" transform="translate(-297.2 -726.826)" fill="#ee4e36"/><path d="M7.181.916c3.866,0,5.093,1.909,5.093,5.775s-1.548,6.376-5.414,6.376S1.085,10.556,1.085,6.69,3.315.916,7.181.916Z" transform="translate(243.8 -277.826)" fill="#fff"/><path d="M4.262-.057c3.038,0,5.093,3.89,5.895,6.1S8.538,12,5.5,12-.791,9.713-.791,6.4,1.224-.057,4.262-.057Z" transform="translate(341.8 -281.826)" fill="#fff"/><path d="M854.871,234.693a23.5,23.5,0,0,1,8.215-8.308c5.439-3.117,13.54-4.162,13.54-4.162s7.37.322,13.283,3.524a44.974,44.974,0,0,1,10.5,8.285s0,1.612,0,1.624-3.861,11.616-9.345,18.894c-2.838,3.767-4.4,5.759-6.371,7.455-1.381,1.2-4.849,2.086-8.065,2.029-6.659-.119-12.853-9.484-12.853-9.484l-8.9-19.378Z" transform="translate(-571.2 -442.826)" fill="#ee7277"/></g></svg>